<svg width="35" height="35" viewBox="0 0 35 35" fill="none" xmlns="http://www.w3.org/2000/svg">
<g clip-path="url(#clip0_408_47270)">
<path d="M17.4999 0C7.85047 0 0 7.85047 0 17.4999C0 22.3631 2.04877 27.047 5.62091 30.3506C5.90972 30.6177 6.36033 30.6 6.62743 30.3113C6.89452 30.0224 6.87695 29.5719 6.58802 29.3048C3.30647 26.2699 1.42449 21.9673 1.42449 17.4999C1.42449 8.63595 8.63595 1.42449 17.4999 1.42449C26.3639 1.42449 33.5754 8.63595 33.5754 17.4999C33.5754 26.3639 26.3639 33.5754 17.4999 33.5754C17.1067 33.5754 16.7877 33.8944 16.7877 34.2876C16.7877 34.6809 17.1067 34.9999 17.4999 34.9999C27.1495 34.9999 34.9999 27.1494 34.9999 17.4999C34.9999 7.85047 27.1495 0 17.4999 0Z" fill="black"/>
<path d="M9.99349 10.7055H25.0068C25.4 10.7055 25.719 10.3865 25.719 9.99325C25.719 9.59997 25.4 9.28101 25.0068 9.28101H9.99349C9.60022 9.28101 9.28125 9.59997 9.28125 9.99325C9.28125 10.3865 9.60022 10.7055 9.99349 10.7055Z" fill="black"/>
<path d="M9.99349 18.2121H25.0068C25.4 18.2121 25.719 17.8931 25.719 17.4998C25.719 17.1066 25.4 16.7876 25.0068 16.7876H9.99349C9.60022 16.7876 9.28125 17.1066 9.28125 17.4998C9.28125 17.8931 9.60022 18.2121 9.99349 18.2121Z" fill="black"/>
<path d="M25.719 25.0067C25.719 24.6134 25.4 24.2944 25.0068 24.2944H9.99349C9.60022 24.2944 9.28125 24.6134 9.28125 25.0067C9.28125 25.4 9.60022 25.7189 9.99349 25.7189H25.0068C25.4 25.7189 25.719 25.4 25.719 25.0067Z" fill="black"/>
</g>
<defs>
<clipPath id="clip0_408_47270">
<rect width="35" height="35" fill="white"/>
</clipPath>
</defs>
</svg>
