<svg width="35" height="35" viewBox="0 0 35 35" fill="none" xmlns="http://www.w3.org/2000/svg">
<path d="M17.4999 0C7.85047 0 0 7.85047 0 17.4999C0 22.3631 2.04877 27.047 5.62091 30.3506C5.90972 30.6177 6.36033 30.6 6.62743 30.3113C6.89452 30.0224 6.87695 29.5719 6.58802 29.3048C3.30647 26.2699 1.42449 21.9673 1.42449 17.4999C1.42449 8.63595 8.63595 1.42449 17.4999 1.42449C26.3639 1.42449 33.5754 8.63595 33.5754 17.4999C33.5754 26.3639 26.3639 33.5754 17.4999 33.5754C17.1067 33.5754 16.7877 33.8944 16.7877 34.2876C16.7877 34.6809 17.1067 34.9999 17.4999 34.9999C27.1495 34.9999 34.9999 27.1494 34.9999 17.4999C34.9999 7.85047 27.1495 0 17.4999 0Z" fill="black"/>
</svg>
