<svg width="48" height="30" viewBox="0 0 48 30" fill="none" xmlns="http://www.w3.org/2000/svg">
<path d="M33.2244 0.22467H14.7753C6.62812 0.22467 -6.10352e-05 6.85269 -6.10352e-05 15.0001C-6.10352e-05 23.1474 6.62812 29.7754 14.7753 29.7754H33.2246C41.3718 29.7754 47.9999 23.1473 47.9999 15.0001C47.9999 6.85285 41.3716 0.22467 33.2244 0.22467ZM33.2244 26.5808H14.7753C8.38973 26.5808 3.19459 21.3856 3.19459 15.0001C3.19459 8.61446 8.38973 3.41933 14.7753 3.41933H33.2246C39.6101 3.41933 44.8053 8.61446 44.8053 15.0001C44.8053 21.3856 39.61 26.5808 33.2244 26.5808Z" fill="black"/>
<path d="M14.7753 5.49579C9.53476 5.49579 5.27118 9.75937 5.27118 14.9999C5.27118 20.2405 9.53476 24.504 14.7753 24.504C20.0159 24.504 24.2794 20.2405 24.2794 14.9999C24.2794 9.75937 20.0159 5.49579 14.7753 5.49579ZM14.7753 21.3094C11.2962 21.3094 8.46583 18.479 8.46583 14.9999C8.46583 11.5208 11.2962 8.69044 14.7753 8.69044C18.2544 8.69044 21.0848 11.5208 21.0848 14.9999C21.0848 18.479 18.2542 21.3094 14.7753 21.3094Z" fill="black"/>
</svg>
