<svg width="98" height="30" viewBox="0 0 98 30" fill="none" xmlns="http://www.w3.org/2000/svg">
<path d="M59.2245 0H40.7754C32.6282 0 26 6.62802 26 14.7754C26 22.9228 32.6282 29.5508 40.7754 29.5508H59.2246C67.3718 29.5508 74 22.9226 74 14.7754C74 6.62818 67.3717 0 59.2245 0ZM59.2245 26.3561H40.7754C34.3898 26.3561 29.1947 21.161 29.1947 14.7754C29.1947 8.38979 34.3898 3.19466 40.7754 3.19466H59.2246C65.6102 3.19466 70.8053 8.38979 70.8053 14.7754C70.8053 21.161 65.61 26.3561 59.2245 26.3561Z" fill="black"/>
<path d="M40.7754 5.27124C35.5348 5.27124 31.2712 9.53482 31.2712 14.7754C31.2712 20.0159 35.5348 24.2795 40.7754 24.2795C46.0159 24.2795 50.2795 20.0159 50.2795 14.7754C50.2795 9.53482 46.0159 5.27124 40.7754 5.27124ZM40.7754 21.0848C37.2963 21.0848 34.4659 18.2545 34.4659 14.7754C34.4659 11.2963 37.2963 8.4659 40.7754 8.4659C44.2545 8.4659 47.0848 11.2963 47.0848 14.7754C47.0848 18.2545 44.2543 21.0848 40.7754 21.0848Z" fill="black"/>
<path d="M1.134 22.7754V8.19539H4.068C5.04 8.19539 5.844 8.32739 6.48 8.59139C7.116 8.84339 7.584 9.25739 7.884 9.83339C8.196 10.3974 8.352 11.1414 8.352 12.0654C8.352 12.6294 8.292 13.1454 8.172 13.6134C8.052 14.0694 7.86 14.4594 7.596 14.7834C7.332 15.0954 6.984 15.3234 6.552 15.4674L8.622 22.7754H6.66L4.752 15.9354H3.168V22.7754H1.134ZM3.168 14.4774H3.942C4.518 14.4774 4.986 14.4054 5.346 14.2614C5.706 14.1174 5.97 13.8714 6.138 13.5234C6.306 13.1754 6.39 12.6894 6.39 12.0654C6.39 11.2134 6.234 10.6014 5.922 10.2294C5.61 9.84539 4.992 9.65339 4.068 9.65339H3.168V14.4774ZM14.23 22.9374C13.174 22.9374 12.364 22.7274 11.8 22.3074C11.236 21.8874 10.852 21.2994 10.648 20.5434C10.444 19.7754 10.342 18.8814 10.342 17.8614V8.19539H12.286V17.9514C12.286 18.5754 12.328 19.1454 12.412 19.6614C12.496 20.1774 12.676 20.5854 12.952 20.8854C13.24 21.1854 13.666 21.3354 14.23 21.3354C14.806 21.3354 15.232 21.1854 15.508 20.8854C15.784 20.5854 15.964 20.1774 16.048 19.6614C16.132 19.1454 16.174 18.5754 16.174 17.9514V8.19539H18.1V17.8614C18.1 18.8814 17.998 19.7754 17.794 20.5434C17.59 21.2994 17.206 21.8874 16.642 22.3074C16.09 22.7274 15.286 22.9374 14.23 22.9374Z" fill="black"/>
<path d="M82.134 22.7754V8.19539H87.786V9.70739H84.168V14.5314H87.102V15.9714H84.168V21.3174H87.822V22.7754H82.134ZM89.4641 22.7754V8.19539H90.8501L94.9901 17.8794V8.19539H96.6821V22.7754H95.3861L91.1921 12.8214V22.7754H89.4641Z" fill="black" fill-opacity="0.5"/>
</svg>
