<svg width="31" height="31" viewBox="0 0 31 31" fill="none" xmlns="http://www.w3.org/2000/svg">
<g clip-path="url(#clip0_14_1109)">
<path d="M23.005 15.0933L16.8 27.0933H6.50499C6.35285 27.0926 6.20931 27.0226 6.11499 26.9033L16.005 10.0933L23.005 15.0933Z" fill="#D84315"/>
<path d="M21.505 15.0931L15.3 27.0931H6.50499C6.35285 27.0924 6.20931 27.0225 6.11499 26.9031L15.56 10.8481L21.505 15.0931Z" fill="#FF5722"/>
<path d="M11.505 6.59326L6.005 8.09326L7.00501 0.593262L11.505 6.59326Z" fill="#FF9801"/>
<path d="M18.505 2.59326L16.005 10.0933L11.505 6.59326L18.505 2.59326Z" fill="#F57C00"/>
<path d="M16.65 3.65332L14.815 9.16832L11.505 6.59332L16.65 3.65332Z" fill="#FF9801"/>
<path d="M16.005 10.0933L6.11502 26.9033C5.95502 26.7083 6.00502 27.8633 6.00502 8.09326L9.50502 16.0933L16.005 10.0933Z" fill="#F5F5F5"/>
<path d="M16.005 10.0933L9.505 16.0933L6.005 8.09326L11.505 6.59326L16.005 10.0933Z" fill="#FF9801"/>
<path d="M24.005 27.0933L15.505 29.5933L23.005 15.0933L24.005 27.0933Z" fill="#F57C00"/>
<path d="M22.505 27.0933L15.775 29.0733L21.715 17.5933L22.505 27.0933Z" fill="#FF9801"/>
<path d="M6.50501 27.5933H15.975L15.06 29.3633C14.9541 29.5423 14.9702 29.7682 15.1002 29.9305C15.2303 30.0928 15.4472 30.1576 15.645 30.0933L24.145 27.5933C24.3656 27.5291 24.5141 27.3229 24.505 27.0933L23.505 15.0933C23.491 14.9458 23.4122 14.8121 23.29 14.7283L16.595 9.9033L19.005 2.7533C19.0863 2.54833 19.0237 2.31431 18.851 2.17727C18.6782 2.04023 18.4361 2.03252 18.255 2.1583L11.64 5.9383L7.40501 0.293301C7.28384 0.12758 7.07369 0.0527603 6.87506 0.104625C6.67643 0.15649 6.52968 0.324499 6.50501 0.528301C5.505 8.2533 5.505 8.0233 5.505 8.0933V26.5933C5.505 27.1456 5.95272 27.5933 6.50501 27.5933V27.5933ZM23.475 26.7283L16.505 28.7833L22.65 16.8683L23.475 26.7283ZM22.36 15.2283L16.505 26.5933H6.88001L16.16 10.8183L22.36 15.2283ZM17.615 3.6783L15.755 9.2633L12.4 6.6583L17.615 3.6783ZM15.23 10.1283L9.68001 15.2483L6.68001 8.4233L11.38 7.1433L15.23 10.1283ZM7.34001 1.8733L10.665 6.3033L6.60001 7.4133L7.34001 1.8733ZM6.50501 10.4833L9.04501 16.2933C9.10997 16.4422 9.2432 16.5502 9.40227 16.583C9.56134 16.6158 9.72644 16.5693 9.84501 16.4583L13.845 12.7533L6.50501 25.2533V10.4833Z" fill="black"/>
</g>
<defs>
<clipPath id="clip0_14_1109">
<rect width="30" height="30" fill="white" transform="translate(0.00500488 0.0932617)"/>
</clipPath>
</defs>
</svg>
