<svg width="40" height="40" viewBox="0 0 40 40" fill="none" xmlns="http://www.w3.org/2000/svg">
<circle cx="19.9999" cy="20" r="20" fill="#F98A27"/>
<circle cx="19.9999" cy="20" r="20" fill="url(#paint0_radial_244_373797)"/>
<circle cx="19.9999" cy="20" r="20" fill="url(#paint1_radial_244_373797)"/>
<g clip-path="url(#clip0_244_373797)">
<path d="M11.9683 36.1811C10.03 36.0929 8.97707 35.7703 8.27673 35.4972C7.34875 35.1359 6.68716 34.7058 5.99069 34.0103C5.29422 33.3148 4.86316 32.6532 4.50379 31.7252C4.23063 31.0249 3.90806 29.9719 3.81991 28.0336C3.72305 25.9384 3.70367 25.3098 3.70367 20.0015C3.70367 14.6932 3.72498 14.0655 3.81895 11.9684C3.90709 10.0301 4.2316 8.97907 4.50282 8.27679C4.86413 7.34881 5.29519 6.68722 5.98972 5.98978C6.68522 5.29428 7.34681 4.86226 8.27576 4.50288C8.97611 4.22972 10.029 3.90715 11.9673 3.81901C14.0635 3.72311 14.6932 3.70374 19.9995 3.70374C25.3078 3.70374 25.9355 3.72505 28.0326 3.81901C29.9709 3.90715 31.0219 4.23166 31.7242 4.50288C32.6522 4.86226 33.3138 5.29428 34.0102 5.98978C34.7067 6.68528 35.1358 7.34784 35.4971 8.27582C35.7703 8.97617 36.0928 10.0291 36.181 11.9674C36.2769 14.0646 36.2963 14.6922 36.2963 20.0005C36.2963 25.3069 36.2769 25.9365 36.181 28.0336C36.0928 29.9719 35.7683 31.0249 35.4971 31.7252C35.1358 32.6532 34.7057 33.3148 34.0102 34.0103C33.3147 34.7058 32.6522 35.1359 31.7242 35.4972C31.0238 35.7703 29.9709 36.0929 28.0326 36.1811C25.9374 36.277 25.3078 36.2963 19.9995 36.2963C14.6932 36.2963 14.0635 36.2779 11.9683 36.1811Z" fill="url(#paint2_radial_244_373797)"/>
<path d="M11.9683 36.1811C10.03 36.0929 8.97707 35.7703 8.27673 35.4972C7.34875 35.1359 6.68716 34.7058 5.99069 34.0103C5.29422 33.3148 4.86316 32.6532 4.50379 31.7252C4.23063 31.0249 3.90806 29.9719 3.81991 28.0336C3.72305 25.9384 3.70367 25.3098 3.70367 20.0015C3.70367 14.6932 3.72498 14.0655 3.81895 11.9684C3.90709 10.0301 4.2316 8.97907 4.50282 8.27679C4.86413 7.34881 5.29519 6.68722 5.98972 5.98978C6.68522 5.29428 7.34681 4.86226 8.27576 4.50288C8.97611 4.22972 10.029 3.90715 11.9673 3.81901C14.0635 3.72311 14.6932 3.70374 19.9995 3.70374C25.3078 3.70374 25.9355 3.72505 28.0326 3.81901C29.9709 3.90715 31.0219 4.23166 31.7242 4.50288C32.6522 4.86226 33.3138 5.29428 34.0102 5.98978C34.7067 6.68528 35.1358 7.34784 35.4971 8.27582C35.7703 8.97617 36.0928 10.0291 36.181 11.9674C36.2769 14.0646 36.2963 14.6922 36.2963 20.0005C36.2963 25.3069 36.2769 25.9365 36.181 28.0336C36.0928 29.9719 35.7683 31.0249 35.4971 31.7252C35.1358 32.6532 34.7057 33.3148 34.0102 34.0103C33.3147 34.7058 32.6522 35.1359 31.7242 35.4972C31.0238 35.7703 29.9709 36.0929 28.0326 36.1811C25.9374 36.277 25.3078 36.2963 19.9995 36.2963C14.6932 36.2963 14.0635 36.2779 11.9683 36.1811Z" fill="url(#paint3_radial_244_373797)"/>
<path d="M15.9984 20.0695C15.9984 17.8405 17.8049 16.033 20.0339 16.033C22.2629 16.033 24.0703 17.8405 24.0703 20.0695C24.0703 22.2985 22.2629 24.1059 20.0339 24.1059C17.8049 24.1059 15.9984 22.2985 15.9984 20.0695ZM13.8164 20.0695C13.8164 23.5034 16.6 26.2869 20.0339 26.2869C23.4678 26.2869 26.2513 23.5034 26.2513 20.0695C26.2513 16.6356 23.4678 13.852 20.0339 13.852C16.6 13.852 13.8165 16.6354 13.8165 20.0695H13.8164ZM25.0446 13.6055C25.0445 13.8929 25.1296 14.1738 25.2891 14.4128C25.4487 14.6518 25.6755 14.8382 25.941 14.9482C26.2065 15.0583 26.4986 15.0872 26.7805 15.0313C27.0623 14.9753 27.3213 14.837 27.5246 14.6339C27.7279 14.4308 27.8664 14.1719 27.9225 13.8901C27.9787 13.6083 27.9501 13.3161 27.8402 13.0506C27.7303 12.785 27.5442 12.558 27.3053 12.3983C27.0664 12.2385 26.7855 12.1532 26.4982 12.1531H26.4976C26.1124 12.1532 25.743 12.3063 25.4706 12.5786C25.1981 12.851 25.0449 13.2203 25.0446 13.6055ZM15.1421 29.9254C13.9616 29.8717 13.32 29.675 12.8936 29.5089C12.3283 29.2888 11.9249 29.0267 11.5008 28.6032C11.0768 28.1797 10.8142 27.7767 10.5951 27.2114C10.4289 26.7852 10.2323 26.1434 10.1786 24.9629C10.1199 23.6866 10.1082 23.3032 10.1082 20.0697C10.1082 16.8362 10.1209 16.4538 10.1786 15.1765C10.2324 13.996 10.4305 13.3554 10.5951 12.9279C10.8152 12.3626 11.0773 11.9592 11.5008 11.5352C11.9243 11.1111 12.3273 10.8486 12.8936 10.6295C13.3198 10.4632 13.9616 10.2666 15.1421 10.2129C16.4184 10.1542 16.8018 10.1425 20.0339 10.1425C23.2659 10.1425 23.6497 10.155 24.9271 10.2131C26.1076 10.2669 26.7482 10.465 27.1756 10.6297C27.741 10.8488 28.1443 11.1119 28.5684 11.5354C28.9925 11.9589 29.254 12.3628 29.4741 12.9281C29.6403 13.3543 29.8369 13.9961 29.8906 15.1767C29.9493 16.454 29.961 16.8364 29.961 20.0699C29.961 23.3033 29.9493 23.6857 29.8906 24.9631C29.8368 26.1436 29.6392 26.7852 29.4741 27.2116C29.254 27.7769 28.9919 28.1803 28.5684 28.6034C28.1449 29.0265 27.741 29.289 27.1756 29.5091C26.7494 29.6753 26.1076 29.8719 24.9271 29.9256C23.6508 29.9843 23.2674 29.996 20.0339 29.996C16.8004 29.996 16.4181 29.9843 15.1421 29.9256V29.9254ZM15.0419 8.03451C13.7529 8.09321 12.8721 8.2976 12.1029 8.59692C11.3067 8.90602 10.6318 9.3207 9.95795 9.99353C9.28405 10.6664 8.87043 11.3413 8.56133 12.1384C8.26201 12.9081 8.05763 13.7885 7.99893 15.0775C7.93926 16.3685 7.9256 16.7812 7.9256 20.0695C7.9256 23.3577 7.93926 23.7704 7.99893 25.0615C8.05763 26.3506 8.26201 27.2308 8.56133 28.0005C8.87043 28.7966 9.28415 29.4729 9.95795 30.1454C10.6318 30.8179 11.3057 31.232 12.1029 31.542C12.8735 31.8413 13.7529 32.0457 15.0419 32.1044C16.3336 32.1631 16.7457 32.1778 20.0339 32.1778C23.3221 32.1778 23.7349 32.1641 25.0259 32.1044C26.315 32.0457 27.1952 31.8413 27.9649 31.542C28.7611 31.232 29.4359 30.8182 30.1098 30.1454C30.7837 29.4726 31.1965 28.7966 31.5064 28.0005C31.8058 27.2308 32.0111 26.3505 32.0688 25.0615C32.1275 23.7695 32.1412 23.3577 32.1412 20.0695C32.1412 16.7812 32.1275 16.3685 32.0688 15.0775C32.0101 13.7884 31.8058 12.9077 31.5064 12.1384C31.1965 11.3423 30.7826 10.6674 30.1098 9.99353C29.437 9.31963 28.761 8.90602 27.9659 8.59692C27.1952 8.2976 26.3149 8.09224 25.0269 8.03451C23.7356 7.97552 23.3231 7.96118 20.0353 7.96118C16.7476 7.96118 16.3341 7.97484 15.0424 8.03451" fill="white"/>
</g>
<defs>
<radialGradient id="paint0_radial_244_373797" cx="0" cy="0" r="1" gradientUnits="userSpaceOnUse" gradientTransform="translate(2.5887 39.1237) scale(50.7852)">
<stop offset="0.09" stop-color="#FA8F21"/>
<stop offset="0.78" stop-color="#D82D7E"/>
</radialGradient>
<radialGradient id="paint1_radial_244_373797" cx="0" cy="0" r="1" gradientUnits="userSpaceOnUse" gradientTransform="translate(27.7777 55.5556) rotate(-114.413) scale(57.35 71.2953)">
<stop offset="0.64" stop-color="#8C3AAA" stop-opacity="0"/>
<stop offset="1" stop-color="#8C3AAA"/>
</radialGradient>
<radialGradient id="paint2_radial_244_373797" cx="0" cy="0" r="1" gradientUnits="userSpaceOnUse" gradientTransform="translate(5.81303 35.5823) scale(41.3805)">
<stop offset="0.09" stop-color="#FA8F21"/>
<stop offset="0.78" stop-color="#D82D7E"/>
</radialGradient>
<radialGradient id="paint3_radial_244_373797" cx="0" cy="0" r="1" gradientUnits="userSpaceOnUse" gradientTransform="translate(26.2794 34.5358) scale(36.4152)">
<stop offset="0.64" stop-color="#8C3AAA" stop-opacity="0"/>
<stop offset="1" stop-color="#8C3AAA"/>
</radialGradient>
<clipPath id="clip0_244_373797">
<rect width="32.5926" height="32.5926" fill="white" transform="translate(3.70367 3.70374)"/>
</clipPath>
</defs>
</svg>
