<svg width="30" height="26" viewBox="0 0 30 26" fill="none" xmlns="http://www.w3.org/2000/svg">
<path d="M14.4629 4.97148L14.9964 5.51284L15.5306 4.97219L17.7185 2.75784L18.2578 2.26695L18.8321 1.8464L19.4419 1.48574L20.0851 1.19613L20.7575 0.977296L21.4535 0.827315L22.1542 0.75H22.8547L23.5581 0.827315L24.2506 0.977112L24.9204 1.19595L25.5652 1.48632L26.18 1.84682L26.7504 2.2664L27.2756 2.74449L27.7491 3.27729L28.1688 3.85698L28.5195 4.476L28.8087 5.13405L29.0307 5.81587L29.1758 6.51577L29.25 7.22871V7.94927L29.1758 8.6649L29.0308 9.36169L28.8087 10.0438L28.5198 10.7012L28.1688 11.318L27.7486 11.9012L27.2624 12.4482L14.9972 24.8612L2.73622 12.4468L2.24584 11.9012L1.83228 11.32L1.48025 10.7012L1.19126 10.0438L0.969236 9.36168L0.824154 8.6649L0.75 7.94927V7.22871L0.824154 6.51576L0.969325 5.81588L1.19126 5.13404L1.48053 4.47601L1.83228 3.85502L2.24529 3.27729L2.72288 2.74588L3.2496 2.26639L3.82054 1.8464L4.43296 1.48574L5.07354 1.19613L5.74859 0.977296L6.44193 0.827315L7.14528 0.75H7.84577L8.54649 0.827315L9.24205 0.977205L9.91156 1.19595L10.5558 1.48603L11.1684 1.84682L11.7422 2.26695L12.2811 2.75751L14.4629 4.97148Z" stroke="black" stroke-width="1.5"/>
</svg>
