<svg width="26" height="26" viewBox="0 0 26 26" fill="none" xmlns="http://www.w3.org/2000/svg">
<path d="M25.666 24.1213L19.8075 18.2528C21.3874 16.3267 22.3312 13.8594 22.3312 11.1745C22.3312 5.0036 17.3316 0 11.1656 0C4.99959 0 0 5.0036 0 11.1745C0 17.3454 4.99959 22.349 11.1656 22.349C13.8589 22.349 16.3295 21.394 18.2594 19.8021L24.1179 25.6653C24.8018 26.2914 25.4433 25.8882 25.666 25.6653C26.1113 25.2249 26.1113 24.5617 25.666 24.1213ZM2.17904 11.1745C2.17904 6.20807 6.2031 2.18078 11.1656 2.18078C16.1281 2.18078 20.1574 6.20807 20.1574 11.1745C20.1574 16.141 16.1334 20.1683 11.1709 20.1683C6.2084 20.1683 2.17904 16.141 2.17904 11.1745Z" fill="black"/>
</svg>
