<svg width="20" height="31" viewBox="0 0 20 31" fill="none" xmlns="http://www.w3.org/2000/svg">
<path d="M1.50501 27.5933H10.975L10.06 29.3633C9.95414 29.5423 9.97015 29.7682 10.1002 29.9305C10.2303 30.0928 10.4472 30.1576 10.645 30.0933L19.145 27.5933C19.3656 27.5291 19.5141 27.3229 19.505 27.0933L18.505 15.0933C18.491 14.9458 18.4122 14.8121 18.29 14.7283L11.595 9.9033L14.005 2.7533C14.0863 2.54833 14.0237 2.31431 13.851 2.17727C13.6782 2.04023 13.4361 2.03252 13.255 2.1583L6.64001 5.9383L2.40501 0.293301C2.28384 0.12758 2.07369 0.0527603 1.87506 0.104625C1.67643 0.15649 1.52968 0.324499 1.50501 0.528301C0.505005 8.2533 0.505005 8.0233 0.505005 8.0933V26.5933C0.505005 27.1456 0.95272 27.5933 1.50501 27.5933ZM18.475 26.7283L11.505 28.7833L17.65 16.8683L18.475 26.7283ZM17.36 15.2283L11.505 26.5933H1.88001L11.16 10.8183L17.36 15.2283ZM12.615 3.6783L10.755 9.2633L7.40001 6.6583L12.615 3.6783ZM10.23 10.1283L4.68001 15.2483L1.68001 8.4233L6.38001 7.1433L10.23 10.1283ZM2.34001 1.8733L5.66501 6.3033L1.60001 7.4133L2.34001 1.8733ZM1.50501 10.4833L4.04501 16.2933C4.10997 16.4422 4.2432 16.5502 4.40227 16.583C4.56134 16.6158 4.72644 16.5693 4.84501 16.4583L8.84501 12.7533L1.50501 25.2533V10.4833Z" fill="black"/>
</svg>
