<svg width="30" height="26" viewBox="0 0 30 26" fill="none" xmlns="http://www.w3.org/2000/svg">
<path d="M7.10418 0L6.32134 0.0860523L5.55317 0.252222L4.80258 0.495542L4.08718 0.81898L3.40696 1.21957L2.77365 1.68544L2.19019 2.21659L1.6595 2.80708L1.19918 3.45099L0.809226 4.13941L0.48964 4.8664L0.243354 5.62307L0.0820954 6.40051L0 7.18981V7.98802L0.0820954 8.7803L0.243354 9.55477L0.48964 10.3114L0.809226 11.0384L1.19918 11.7239L1.6595 12.3708L2.19019 12.9612L14.9971 25.9284L27.8098 12.9612L28.3346 12.3708L28.8008 11.7239L29.1908 11.0384L29.5104 10.3114L29.7566 9.55477L29.9179 8.7803L30 7.98802V7.18981L29.9179 6.40051L29.7566 5.62307L29.5104 4.8664L29.1908 4.13941L28.8008 3.45099L28.3346 2.80708L27.8098 2.21659L27.2263 1.68544L26.593 1.21957L25.9099 0.81898L25.1916 0.495542L24.4468 0.252222L23.6787 0.0860523L22.8958 0H22.113L21.3331 0.0860523L20.562 0.252222L19.8143 0.495542L19.096 0.81898L18.4187 1.21957L17.7824 1.68544L17.199 2.21659L14.9971 4.44504L12.801 2.21659L12.2176 1.68544L11.5813 1.21957L10.9011 0.81898L10.1828 0.495542L9.43804 0.252222L8.66693 0.0860523L7.88702 0H7.10418Z" fill="#E90000"/>
</svg>
