<svg width="14" height="18" viewBox="0 0 14 18" fill="none" xmlns="http://www.w3.org/2000/svg">
<path d="M0 13.8777L0.0464637 14.3249L0.136187 14.7637L0.267567 15.1924L0.442207 15.6011L0.658503 15.9896L0.910048 16.3514L1.19684 16.6847L1.51568 16.9878L1.86336 17.2508L2.23507 17.4735L2.6276 17.6561L3.03616 17.7968L3.45594 17.8889L3.88212 17.9358H4.31312L4.7409 17.8889L5.15908 17.7968L5.56764 17.6561L5.96017 17.4735L6.33028 17.2508L6.67956 16.9878L6.9984 16.6847L14 9.36903L6.9984 2.05001L6.67956 1.75022L6.33028 1.48392L5.96017 1.26117L5.56764 1.07861L5.15908 0.937922L4.7409 0.845806L4.31312 0.79891H3.88212L3.45594 0.845806L3.03616 0.937922L2.6276 1.07861L2.23507 1.26117L1.86336 1.48392L1.51568 1.75022L1.19684 2.05001L0.910048 2.3833L0.658503 2.74507L0.442207 3.1353L0.267567 3.54564L0.136187 3.97104L0.0464637 4.40985L0 4.85703L0 5.30421L0.0464637 5.74971L0.136187 6.1902L0.267567 6.61728L0.442207 7.02761L0.658503 7.4145L0.910048 7.77794L1.19684 8.11123L2.40009 9.36903L1.19684 10.6235L0.910048 10.9568L0.658503 11.3202L0.442207 11.7088L0.267567 12.1191L0.136187 12.5445L0.0464637 12.985L0 13.4305L0 13.8777Z" fill="#E90000"/>
</svg>
