<svg width="27" height="27" viewBox="0 0 27 27" fill="none" xmlns="http://www.w3.org/2000/svg">
<g clip-path="url(#clip0_14_1031)">
<path d="M23.0459 3.95403C20.4961 1.40428 17.1059 0 13.4999 0C9.89396 0 6.50382 1.40428 3.95396 3.95403C1.40422 6.50388 -6.10352e-05 9.89402 -6.10352e-05 13.5C-6.10352e-05 17.106 1.40422 20.4961 3.95396 23.046C6.50382 25.5957 9.89396 27 13.4999 27C15.3221 27 17.0902 26.6429 18.755 25.9388L18.1044 24.4006C16.6465 25.0173 15.0973 25.3299 13.4999 25.3299C6.97691 25.3299 1.67004 20.023 1.67004 13.5C1.67004 6.97697 6.97691 1.6701 13.4999 1.6701C20.023 1.6701 25.3298 6.97697 25.3298 13.5C25.3298 16.3572 23.5743 17.6585 21.9432 17.6585C20.3121 17.6585 18.5566 16.3572 18.5566 13.5C18.5566 10.7117 16.2882 8.44332 13.4999 8.44332C10.7116 8.44332 8.44326 10.7118 8.44326 13.5C8.44326 16.2882 10.7116 18.5567 13.4999 18.5567C15.1508 18.5567 16.6194 17.7614 17.5428 16.5339C17.7793 17.0114 18.0769 17.4433 18.4358 17.8206C19.3606 18.7931 20.6062 19.3285 21.9432 19.3285C23.2802 19.3285 24.5258 18.793 25.4507 17.8206C26.4642 16.755 26.9999 15.261 26.9999 13.5C26.9999 9.89402 25.5957 6.50388 23.0459 3.95403ZM13.4999 16.8866C11.6326 16.8866 10.1134 15.3673 10.1134 13.5C10.1134 11.6327 11.6326 10.1134 13.4999 10.1134C15.3673 10.1134 16.8865 11.6327 16.8865 13.5C16.8865 15.3673 15.3673 16.8866 13.4999 16.8866Z" fill="#8C3AAA"/>
</g>
<defs>
<clipPath id="clip0_14_1031">
<rect width="27" height="27" fill="white"/>
</clipPath>
</defs>
</svg>
