<svg width="40" height="40" viewBox="0 0 40 40" fill="none" xmlns="http://www.w3.org/2000/svg">
<circle cx="19.9999" cy="20" r="20" fill="#37AEE2"/>
<g clip-path="url(#clip0_244_373784)">
<path d="M34.8061 3.70374H5.1938C5.18901 3.70374 5.18512 3.70762 5.18512 3.71242V33.3247C5.18512 33.3295 5.18901 33.3334 5.1938 33.3334H34.8061C34.8109 33.3334 34.8147 33.3295 34.8147 33.3247V3.71242C34.8147 3.70762 34.8109 3.70374 34.8061 3.70374Z" fill="#37AEE2"/>
<path d="M16.7013 27.0834C16.0648 27.0834 16.1226 26.8519 15.949 26.2732L14.0972 20.1968L28.2754 11.8635" fill="#C8DAEA"/>
<path d="M16.7013 27.0833C17.1064 27.0833 17.3379 26.8519 17.6273 26.6204L20.2314 24.132L16.9907 22.1644" fill="#A9C9DD"/>
<path d="M16.9907 22.1644L24.8032 27.8936C25.6134 28.4144 26.3078 28.125 26.5393 27.0834L29.7222 12.1528C30.0115 10.8797 29.2013 10.301 28.3333 10.7061L9.75689 17.882C8.54161 18.3449 8.54161 19.0973 9.52541 19.3866L14.3286 20.8912L25.324 13.8889C25.8449 13.5996 26.3078 13.7153 25.9606 14.1204" fill="#F6FBFE"/>
</g>
<defs>
<clipPath id="clip0_244_373784">
<rect x="5.18512" y="3.70374" width="29.6296" height="29.6296" rx="10" fill="white"/>
</clipPath>
</defs>
</svg>
