<svg width="27" height="28" viewBox="0 0 27 28" fill="none" xmlns="http://www.w3.org/2000/svg">
<path d="M13.4999 0.0422363C6.05605 0.0422363 -6.10352e-05 6.10124 -6.10352e-05 13.5495C-6.10352e-05 20.997 6.05523 27.056 13.4999 27.056C13.9603 27.056 14.3323 26.683 14.3323 26.2241C14.3323 25.7643 13.9603 25.3913 13.4999 25.3913C6.97352 25.3913 1.66543 20.0791 1.66543 13.5503C1.66543 7.0208 6.97352 1.70853 13.4999 1.70853C20.0264 1.70853 25.3336 7.0208 25.3336 13.5503C25.3336 16.2784 23.8822 18.9842 21.8051 20.1287C21.0504 20.5438 20.2322 20.7497 19.3593 20.758C19.8834 20.4454 20.3371 20.0245 20.6744 19.4919C20.7405 19.3919 20.8281 19.305 20.8711 19.195C21.1422 18.5426 21.1662 17.8025 21.3298 17.1145C21.5307 16.2329 17.4798 14.5154 17.1277 15.6136C17.0004 16.0212 16.8053 17.3071 16.5499 17.6462C16.3226 17.948 15.7622 17.8058 15.4117 17.5073C14.4885 16.72 13.4578 15.5623 12.5535 14.6485L12.5552 14.6477C12.5321 14.6237 12.5039 14.5964 12.4792 14.5724C12.4535 14.5476 12.4279 14.5212 12.4023 14.4964C11.4881 13.5925 10.331 12.563 9.54491 11.6368C9.24735 11.2862 9.10353 10.7272 9.40605 10.4989C9.74493 10.2426 11.031 10.0499 11.4377 9.92172C12.5337 9.57027 10.8178 5.51494 9.93669 5.71754C9.24901 5.8788 8.50924 5.9036 7.8571 6.17401C7.74634 6.22032 7.66038 6.30633 7.56037 6.37248C5.24686 7.8403 4.94848 11.4028 7.20661 14.0564C8.06704 15.0719 8.96467 16.0543 9.88875 17.0136L9.88379 17.0169C9.90942 17.0425 9.93587 17.0665 9.96232 17.0913C9.98711 17.1169 10.0111 17.1426 10.0351 17.1699L10.04 17.1649C10.9988 18.0894 12.1353 19.4506 13.9818 20.6835C17.8691 23.281 20.8521 22.5557 22.6093 21.5915C25.6427 19.9203 26.9999 16.3504 26.9999 13.5545C27.0008 6.10124 20.9438 0.0422363 13.4999 0.0422363Z" fill="#8C3AAA"/>
</svg>
