<svg width="40" height="40" viewBox="0 0 40 40" fill="none" xmlns="http://www.w3.org/2000/svg">
<circle cx="19.9999" cy="20" r="20" fill="#00C70A"/>
<g clip-path="url(#clip0_244_373778)">
<path d="M36.2867 3.70374H3.71322C3.70795 3.70374 3.70367 3.70801 3.70367 3.71328V36.2868C3.70367 36.2921 3.70795 36.2963 3.71322 36.2963H36.2867C36.292 36.2963 36.2963 36.2921 36.2963 36.2868V3.71328C36.2963 3.70801 36.292 3.70374 36.2867 3.70374Z" fill="#00C70A"/>
<path d="M29.294 27.1933C30.7581 26.1111 31.7129 24.5197 31.7129 22.7373C31.7129 19.4908 28.5301 16.8808 24.647 16.8808C20.7639 16.8808 17.6447 19.4908 17.6447 22.7373C17.6447 25.9838 20.7639 28.5938 24.647 28.5938C25.4745 28.5938 26.2384 28.4664 26.9386 28.2755C27.1933 28.2118 27.4479 28.2755 27.5116 28.3391L29.103 29.2303C29.294 29.3576 29.4849 29.2303 29.4213 28.9757L29.0393 27.5752C29.0393 27.3843 29.1666 27.257 29.294 27.1933ZM22.2916 21.7824C22.1503 21.8199 22.0022 21.8243 21.8589 21.7955C21.7155 21.7667 21.5807 21.7053 21.4648 21.6161C21.3489 21.5269 21.2551 21.4123 21.1905 21.2811C21.1259 21.1499 21.0923 21.0056 21.0923 20.8594C21.0923 20.7132 21.1259 20.5689 21.1905 20.4377C21.2551 20.3065 21.3489 20.1919 21.4648 20.1027C21.5807 20.0135 21.7155 19.9521 21.8589 19.9233C22.0022 19.8944 22.1503 19.8989 22.2916 19.9364C22.4953 19.9903 22.6754 20.1101 22.8039 20.277C22.9324 20.444 23.002 20.6487 23.002 20.8594C23.002 21.0701 22.9324 21.2748 22.8039 21.4418C22.6754 21.6087 22.4953 21.7285 22.2916 21.7824ZM27.0023 21.7824C26.8609 21.8199 26.7129 21.8243 26.5695 21.7955C26.4261 21.7667 26.2913 21.7053 26.1754 21.6161C26.0596 21.5269 25.9657 21.4123 25.9011 21.2811C25.8365 21.1499 25.8029 21.0056 25.8029 20.8594C25.8029 20.7132 25.8365 20.5689 25.9011 20.4377C25.9657 20.3065 26.0596 20.1919 26.1754 20.1027C26.2913 20.0135 26.4261 19.9521 26.5695 19.9233C26.7129 19.8944 26.8609 19.8989 27.0023 19.9364C27.2059 19.9903 27.386 20.1101 27.5145 20.277C27.643 20.444 27.7127 20.6487 27.7127 20.8594C27.7127 21.0701 27.643 21.2748 27.5145 21.4418C27.386 21.6087 27.2059 21.7285 27.0023 21.7824Z" fill="white"/>
<path d="M16.7534 10.3878C12.1064 10.3878 8.35065 13.5706 8.35065 17.4537C8.35065 19.5544 9.43282 21.4641 11.2152 22.7373C11.4062 22.8646 11.5335 23.0556 11.4699 23.3739L11.0243 24.9016C10.9606 25.2199 11.2152 25.3472 11.4062 25.2836L13.3159 24.2014C13.5069 24.0741 13.7615 24.0104 14.0162 24.0741C15.6712 24.5834 17.0717 24.456 17.2627 24.456C15.7349 19.1088 21.0185 16.0533 25.0925 16.3079C24.456 12.9977 20.9548 10.3878 16.7534 10.3878ZM13.9525 16.3079C13.784 16.3485 13.6086 16.3503 13.4393 16.3132C13.27 16.2762 13.1113 16.2012 12.9752 16.094C12.8391 15.9867 12.7291 15.85 12.6534 15.6941C12.5778 15.5382 12.5385 15.3672 12.5385 15.1939C12.5385 15.0206 12.5778 14.8496 12.6534 14.6937C12.7291 14.5378 12.8391 14.4011 12.9752 14.2938C13.1113 14.1866 13.27 14.1116 13.4393 14.0746C13.6086 14.0375 13.784 14.0393 13.9525 14.0799C14.2026 14.1401 14.4252 14.2827 14.5844 14.4848C14.7436 14.6869 14.8301 14.9366 14.8301 15.1939C14.8301 15.4511 14.7436 15.7009 14.5844 15.903C14.4252 16.1051 14.2026 16.2477 13.9525 16.3079ZM19.618 16.3079C19.4495 16.3485 19.2741 16.3503 19.1048 16.3132C18.9355 16.2762 18.7768 16.2012 18.6407 16.094C18.5046 15.9867 18.3946 15.85 18.3189 15.6941C18.2433 15.5382 18.204 15.3672 18.204 15.1939C18.204 15.0206 18.2433 14.8496 18.3189 14.6937C18.3946 14.5378 18.5046 14.4011 18.6407 14.2938C18.7768 14.1866 18.9355 14.1116 19.1048 14.0746C19.2741 14.0375 19.4495 14.0393 19.618 14.0799C19.8681 14.1401 20.0907 14.2827 20.2499 14.4848C20.4091 14.6869 20.4956 14.9366 20.4956 15.1939C20.4956 15.4511 20.4091 15.7009 20.2499 15.903C20.0907 16.1051 19.8681 16.2477 19.618 16.3079Z" fill="white"/>
</g>
<defs>
<clipPath id="clip0_244_373778">
<rect x="3.70367" y="3.70374" width="32.5926" height="32.5926" rx="10" fill="white"/>
</clipPath>
</defs>
</svg>
