<svg width="40" height="40" viewBox="0 0 40 40" fill="none" xmlns="http://www.w3.org/2000/svg">
<circle cx="19.9999" cy="20" r="20" fill="#25D366"/>
<path d="M8.67489 32.0001L9.943 26.1314C8.3131 23.5689 7.67728 20.5016 8.15481 17.5051C8.63235 14.5085 10.1904 11.7886 12.5367 9.85568C14.883 7.92276 17.8563 6.90964 20.8987 7.0064C23.9411 7.10317 26.8435 8.30318 29.0614 10.3813C31.2793 12.4594 32.6602 15.2727 32.9451 18.2935C33.23 21.3144 32.3993 24.335 30.6088 26.7887C28.8183 29.2424 26.1911 30.9606 23.2202 31.6208C20.2492 32.2811 17.1386 31.8381 14.472 30.3749L8.67489 32.0001Z" fill="#25D366" stroke="white" stroke-width="2"/>
<path d="M23.9148 21.2293C23.6539 21.0521 23.3921 20.9622 23.1259 21.3085L22.0609 22.6939C21.7965 22.8657 21.6205 22.9512 21.272 22.7731C19.9658 22.0616 18.1351 21.2576 16.5858 18.6238C16.5018 18.2739 16.6787 18.1011 16.8556 17.9284L17.6561 16.7149C17.833 16.5422 17.7472 16.3668 17.6614 16.1914L16.6366 13.6502C16.3811 12.9495 16.1175 13.0341 15.8548 13.0314L15.1544 13.0242C14.9793 13.0224 14.6281 13.1061 14.2743 13.4515C12.3285 15.3515 13.0888 18.0645 14.4719 19.8239C14.731 20.1756 16.4501 23.3347 20.1981 25.031C22.9875 26.2812 23.6022 26.113 24.392 25.9465C25.356 25.8691 26.3272 25.0936 26.773 24.3128C26.8632 24.0519 27.3126 22.9221 26.9642 22.744" fill="white"/>
</svg>
